<?xml version="1.0" encoding="UTF-8"?>
<svg id="Layer_1" xmlns="http://www.w3.org/2000/svg" version="1.1" viewBox="0 0 591.2 144.6">
  <!-- Generator: Adobe Illustrator 30.6.0, SVG Export Plug-In . SVG Version: 2.1.4 Build 109)  -->
  <defs>
    <style>
      .st0 {
        fill: #5b5b5b;
      }

      .st1 {
        fill: #333;
      }

      .st2 {
        fill: #4e64b7;
      }
    </style>
  </defs>
  <path class="st2" d="M541.2,144.6h-15c-.5,0-1-.1-1.3-.4-.3-.2-.5-.5-.5-.9s.1-.7.4-1.2l22.6-34.4-21.1-32.9c-.3-.4-.4-.8-.4-1.2s.2-.7.5-.9c.3-.2.8-.3,1.3-.3h15.2c1.1,0,1.9.5,2.5,1.4l12.4,21.3,12.2-21.3c.5-1,1.3-1.4,2.4-1.4h15.4c.5,0,1,.1,1.3.4.3.2.5.5.5.9s-.1.7-.4,1.2l-20.5,32.9,22.1,34.4c.3.5.4.9.4,1.2s-.2.7-.5.9c-.3.2-.8.4-1.3.4h-15.2c-1.1,0-2-.5-2.5-1.4l-14-23.4-14.1,23.4c-.5,1-1.3,1.4-2.5,1.4Z"/>
  <path class="st1" d="M0,110.4V1.6C0,.5.5,0,1.6,0h37.7c10.6,0,19,2.8,25.2,8.3,6.2,5.5,9.4,13.1,9.4,22.6v50.2c0,9.5-3.1,17-9.4,22.6-6.2,5.5-14.6,8.3-25.2,8.3H1.6c-1.1,0-1.6-.5-1.6-1.6ZM12,102h27.8c6.9,0,12.4-2,16.6-6.1,4.1-4.1,6.2-9.5,6.2-16.3v-47.2c0-6.9-2-12.4-6.1-16.5-4.1-4.1-9.6-6.1-16.6-6.1H12c-.4,0-.6.2-.6.6v90.8c0,.4.2.6.6.6Z"/>
  <path class="st1" d="M126.4,32.3c.9.4,1.2,1.1,1,2.1l-1.8,7.8c-.3,1.1-1,1.4-2.1,1-1.8-.7-3.9-1.1-6.2-1.1l-2.1.2c-5.5.2-10.1,2.3-13.8,6.2-3.6,3.9-5.4,8.8-5.4,14.8v47.2c0,1.1-.5,1.6-1.6,1.6h-8.2c-1.1,0-1.6-.5-1.6-1.6V32.6c0-1.1.5-1.6,1.6-1.6h8.2c1.1,0,1.6.5,1.6,1.6v9.8c0,.3,0,.5.2.6.2,0,.3,0,.4-.2,2.2-3.9,5.1-7,8.6-9.2,3.5-2.2,7.5-3.3,12.1-3.3s6.6.7,9.1,2.1Z"/>
  <path class="st1" d="M141.1,107.3c-5.5-3.9-9.4-9.4-11.5-16.3-1.5-4.9-2.2-11.5-2.2-19.7s.7-14.7,2.2-19.5c2-6.8,5.8-12.2,11.4-16.2,5.5-3.9,12.3-5.9,20.2-5.9s14.1,2,19.6,5.9c5.5,3.9,9.2,9.3,11.3,16,1.5,4.6,2.2,11.1,2.2,19.7s-.7,15.2-2.2,19.7c-2,6.9-5.8,12.4-11.3,16.3-5.5,3.9-12.1,5.9-19.8,5.9s-14.3-2-19.8-5.9ZM174,99.1c3.6-2.8,6.1-6.6,7.4-11.4,1-3.8,1.4-9.2,1.4-16.2s-.4-12.4-1.3-16.2c-1.3-4.8-3.8-8.6-7.4-11.4-3.7-2.8-8.1-4.2-13.4-4.2s-9.7,1.4-13.3,4.2c-3.6,2.8-6.1,6.6-7.4,11.4-.9,3.7-1.3,9.1-1.3,16.2s.4,12.4,1.3,16.2c1.2,4.8,3.6,8.6,7.3,11.4,3.7,2.8,8.2,4.2,13.5,4.2s9.5-1.4,13.1-4.2Z"/>
  <path class="st1" d="M270.5,71.5c0,8.5-.7,15.1-2.1,19.8-1.9,6.8-5.4,12.2-10.5,16.1-5.1,3.9-11.4,5.8-19.1,5.8s-8-.8-11.5-2.5c-3.5-1.7-6.5-4-8.8-7.1-.2-.2-.4-.3-.6-.2-.2,0-.2.2-.2.4v37.6c0,1.1-.5,1.6-1.6,1.6h-8.2c-1.1,0-1.6-.5-1.6-1.6V32.6c0-1.1.5-1.6,1.6-1.6h8.2c1.1,0,1.6.5,1.6,1.6v6.7c0,.2,0,.3.2.4.2,0,.3,0,.6-.2,2.3-3.1,5.3-5.5,8.7-7.2,3.5-1.7,7.3-2.6,11.6-2.6,7.5,0,13.7,1.9,18.8,5.8,5.1,3.8,8.6,9.1,10.5,15.7,1.6,5.1,2.4,11.9,2.4,20.3ZM258.1,83.7c.6-2.9.9-7,.9-12.2s-.2-8.9-.6-11.8c-.4-2.8-1.2-5.4-2.2-7.6-1.3-3.8-3.5-6.9-6.8-9.1-3.3-2.2-7.1-3.4-11.6-3.4s-7.8,1.1-10.7,3.4c-2.9,2.2-5,5.2-6.4,9-1,2.1-1.7,4.6-2.1,7.5-.4,2.9-.6,6.9-.6,12s.2,9.1.6,12.1c.4,2.9,1.2,5.5,2.2,7.8,1.3,3.6,3.4,6.5,6.3,8.7,2.9,2.2,6.4,3.3,10.5,3.3s8-1.1,11.1-3.2c3.1-2.1,5.4-5,6.8-8.5,1.2-2.3,2.1-5,2.6-7.9Z"/>
  <path class="st0" d="M283.7,110.4V1.6c0-1.1.5-1.6,1.6-1.6h37.7c10.6,0,19,2.8,25.2,8.3,6.2,5.5,9.4,13.1,9.4,22.6v50.2c0,9.5-3.1,17-9.4,22.6-6.2,5.5-14.6,8.3-25.2,8.3h-37.7c-1.1,0-1.6-.5-1.6-1.6ZM295.7,102h27.8c6.9,0,12.4-2,16.6-6.1,4.1-4.1,6.2-9.5,6.2-16.3v-47.2c0-6.9-2-12.4-6.1-16.5-4.1-4.1-9.6-6.1-16.6-6.1h-27.8c-.4,0-.6.2-.6.6v90.8c0,.4.2.6.6.6Z"/>
  <path class="st0" d="M379.4,107.3c-5.5-3.9-9.4-9.4-11.5-16.3-1.5-4.9-2.2-11.5-2.2-19.7s.7-14.7,2.2-19.5c2-6.8,5.8-12.2,11.4-16.2,5.5-3.9,12.3-5.9,20.2-5.9s14.1,2,19.6,5.9c5.5,3.9,9.2,9.3,11.3,16,1.5,4.6,2.2,11.1,2.2,19.7s-.7,15.2-2.2,19.7c-2,6.9-5.8,12.4-11.3,16.3-5.5,3.9-12.1,5.9-19.8,5.9s-14.3-2-19.8-5.9ZM412.3,99.1c3.6-2.8,6.1-6.6,7.4-11.4,1-3.8,1.4-9.2,1.4-16.2s-.4-12.4-1.3-16.2c-1.3-4.8-3.8-8.6-7.4-11.4-3.7-2.8-8.1-4.2-13.4-4.2s-9.7,1.4-13.3,4.2c-3.6,2.8-6.1,6.6-7.4,11.4-.9,3.7-1.3,9.1-1.3,16.2s.4,12.4,1.3,16.2c1.2,4.8,3.6,8.6,7.3,11.4,3.7,2.8,8.2,4.2,13.5,4.2s9.5-1.4,13.1-4.2Z"/>
  <path class="st0" d="M454.3,107.2c-5.5-4-9.3-9.4-11.3-16.2-1.4-4.7-2.1-11.3-2.1-19.8s.7-14.2,2.1-19.5c1.9-6.6,5.7-11.9,11.2-15.9,5.5-4,12.2-6,19.8-6s14.5,2,20.2,5.9c5.7,3.9,9.4,8.9,11.1,14.7.5,1.9.9,3.5,1,4.8v.3c0,.7-.5,1.2-1.4,1.4l-8,1.1h-.3c-.7,0-1.2-.5-1.4-1.4l-.5-2.4c-1-4.1-3.3-7.5-7-10.3-3.7-2.8-8.3-4.2-13.6-4.2s-9.8,1.4-13.4,4.2c-3.6,2.8-5.9,6.6-7,11.3-1,4.1-1.4,9.4-1.4,16.2s.5,12.5,1.4,16.3c1.1,4.8,3.4,8.6,7,11.4,3.6,2.8,8,4.2,13.4,4.2s9.7-1.4,13.5-4.1c3.8-2.7,6.2-6.2,7.1-10.5v-.6l.2-.6c.1-1.1.7-1.5,1.9-1.3l7.8,1.3c1.1.2,1.5.8,1.4,1.8l-.6,3.2c-1.6,6.2-5.3,11.2-11,15-5.8,3.8-12.5,5.8-20.3,5.8s-14.3-2-19.8-6Z"/>
</svg>